<?xml version="1.0" standalone="no"?>
<!DOCTYPE svg PUBLIC "-//W3C//DTD SVG 20010904//EN"
 "http://www.w3.org/TR/2001/REC-SVG-20010904/DTD/svg10.dtd">
<svg version="1.0" xmlns="http://www.w3.org/2000/svg"
 width="320.000000pt" height="320.000000pt" viewBox="0 0 320.000000 320.000000"
 preserveAspectRatio="xMidYMid meet">
<metadata>
Created by potrace 1.16, written by Peter Selinger 2001-2019
</metadata>
<g transform="translate(0.000000,320.000000) scale(0.100000,-0.100000)"
fill="#000000" stroke="none">
<path d="M2638 2079 c-15 -8 -18 -24 -18 -82 0 -75 9 -97 42 -97 11 0 18 -7
18 -20 0 -11 5 -20 11 -20 8 0 7 -5 -1 -15 -21 -26 2 -36 71 -33 l64 3 5 45
c4 37 9 45 30 50 23 5 25 10 28 79 2 45 -2 78 -9 87 -14 17 -213 20 -241 3z
m222 -83 c0 -52 -1 -55 -27 -58 -25 -3 -28 -7 -31 -45 -3 -40 -5 -43 -32 -43
l-29 0 35 57 c41 68 42 83 9 83 -23 0 -24 2 -14 28 10 27 10 27 -25 -7 -41
-40 -44 -51 -16 -51 22 0 26 -20 10 -51 -14 -25 -28 -24 -32 4 -2 16 -11 23
-30 25 -27 3 -28 6 -28 58 l0 54 105 0 105 0 0 -54z"/>
<path d="M1667 1603 c-4 -3 -7 -19 -7 -35 l0 -28 755 0 755 0 0 29 c0 17 -6
31 -16 35 -21 8 -1479 8 -1487 -1z"/>
<path d="M231 1548 l-30 -53 32 -3 c17 -2 33 1 35 6 1 5 9 18 17 28 13 18 14
18 24 -8 8 -22 17 -28 41 -28 26 0 33 7 55 50 14 27 25 52 25 55 0 15 -54 2
-70 -17 l-17 -22 -7 22 c-6 17 -15 22 -41 22 -30 0 -37 -6 -64 -52z"/>
<path d="M868 1550 c-16 -28 -28 -52 -28 -55 0 -13 61 -3 66 10 4 8 10 15 15
15 5 0 9 -7 9 -15 0 -11 11 -15 40 -15 38 0 39 1 28 20 -11 18 -10 23 11 39
42 32 22 51 -51 51 l-63 0 -27 -50z"/>
<path d="M1737 1482 c-57 -2 -68 -6 -63 -18 3 -9 6 -22 6 -30 0 -12 107 -14
735 -14 728 0 735 0 737 20 0 11 1 26 2 32 1 10 -141 13 -674 13 -371 0 -706
-1 -743 -3z"/>
<path d="M793 1348 c-15 -29 -29 -56 -31 -60 -2 -5 9 -8 24 -8 19 0 36 9 50
28 l22 27 7 -27 c6 -23 13 -28 39 -28 27 0 34 6 59 53 33 64 33 67 3 67 -15 0
-32 -11 -44 -27 l-20 -28 -13 28 c-9 20 -19 27 -40 27 -24 0 -33 -8 -56 -52z"/>
<path d="M1247 1386 c-50 -18 -67 -34 -67 -62 0 -46 74 -58 146 -24 55 27 65
50 21 51 -21 1 -25 3 -12 6 35 9 40 22 11 33 -35 13 -52 12 -99 -4z"/>
<path d="M1705 1362 c-2 -2 1 -17 7 -33 l10 -29 692 0 692 0 11 30 11 30 -66
2 c-137 3 -1354 3 -1357 0z"/>
<path d="M1756 1238 c107 -183 272 -309 475 -364 89 -24 281 -24 368 0 203 56
370 183 475 364 6 9 -129 12 -659 12 -530 0 -665 -3 -659 -12z"/>
<path d="M305 1140 c-14 -27 -25 -52 -25 -55 0 -3 14 -5 30 -5 23 0 33 6 42
25 6 14 15 25 19 25 4 0 10 -11 13 -25 5 -20 13 -25 39 -25 30 0 35 5 60 55
l27 55 -34 0 c-24 0 -35 -6 -43 -22 l-10 -23 -12 23 c-9 16 -21 22 -46 22 -31
0 -37 -5 -60 -50z"/>
<path d="M995 1175 c-29 -16 -55 -42 -55 -56 0 -38 95 -52 156 -23 42 20 56
60 29 81 -25 18 -93 16 -130 -2z"/>
<path d="M1168 1141 c-16 -27 -28 -52 -28 -55 0 -3 14 -6 30 -6 23 0 33 6 42
25 6 14 15 25 19 25 5 0 11 -11 15 -25 5 -20 12 -25 38 -25 29 0 35 6 59 55
l27 55 -30 0 c-20 0 -33 -7 -41 -22 l-12 -22 -15 22 c-10 15 -25 22 -46 22
-27 0 -35 -7 -58 -49z"/>
</g>
</svg>
